<?xml version="1.0" encoding="UTF-8" standalone="no"?>
<svg
   version="1.0"
   width="1024pt"
   height="1024pt"
   viewBox="0 0 1024 1024"
   preserveAspectRatio="xMidYMid"
   id="svg53"
   xmlns="http://www.w3.org/2000/svg"
   xmlns:svg="http://www.w3.org/2000/svg">
  <defs
     id="defs53" />
  <g
     transform="matrix(0.1,0,0,-0.1,0,1024)"
     fill="#000000"
     stroke="none"
     id="g53">
    <path
       d="m 3430,8879 c -333,-5 -419,-9 -484,-23 -264,-58 -534,-216 -686,-399 -116,-141 -186,-283 -244,-497 l -31,-115 -3,-2240 c -2,-1567 0,-2273 8,-2350 26,-259 113,-469 272,-655 113,-132 320,-260 510,-314 209,-60 114,-58 2414,-57 1315,1 2148,5 2225,11 100,8 146,18 244,51 254,85 464,213 576,352 106,132 218,400 238,572 8,62 11,790 11,2304 0,2412 2,2307 -56,2508 -48,165 -104,275 -217,425 -73,97 -162,173 -299,256 -196,118 -329,158 -579,173 -171,10 -3161,9 -3899,-2 z m 2244,-330 63,-11 6,-71 c 7,-77 -1,-835 -8,-847 -3,-4 -47,5 -100,21 -133,40 -276,53 -479,45 -170,-7 -274,-21 -356,-50 -24,-8 -45,-14 -46,-13 -7,8 -15,534 -9,620 6,89 10,107 23,108 15,1 15,2 0,6 -15,4 -18,17 -20,74 -1,38 -2,77 -2,86 -1,26 53,33 329,43 285,9 506,6 599,-11 z M 4547,8043 c -1,-236 2,-442 6,-460 8,-31 7,-31 -47,-52 -134,-50 -254,-127 -432,-276 -144,-122 -131,-115 -159,-82 -24,26 -24,63 -1,50 6,-3 8,-3 4,2 -10,10 6,37 49,88 20,23 7,13 -29,-23 l -66,-66 -203,200 c -112,109 -203,203 -201,208 1,5 -2,7 -7,4 -9,-6 -131,118 -131,134 0,18 154,162 258,239 59,44 121,90 137,103 82,66 394,223 553,280 110,39 232,76 254,77 16,1 17,-29 15,-426 z m 1576,373 c 185,-70 243,-97 402,-186 209,-117 364,-231 518,-380 l 88,-85 -258,-257 c -142,-142 -261,-261 -266,-265 -4,-4 -38,22 -75,58 l -67,64 63,-65 62,-66 -25,-34 c -40,-55 -50,-56 -91,-10 -73,81 -331,263 -463,327 l -78,38 3,55 c 2,30 6,190 9,355 6,338 14,505 25,505 5,0 73,-24 153,-54 z m 1569,-176 c 50,-62 0,-160 -82,-160 -59,0 -90,33 -90,96 0,72 28,97 99,91 41,-3 59,-9 73,-27 z m -4783,-1 c 41,-14 51,-35 51,-103 0,-80 -28,-104 -115,-97 -55,5 -85,43 -85,109 0,47 22,79 63,91 44,13 49,13 86,0 z m 4818,-334 c 40,-45 24,-148 -26,-175 -44,-23 -99,-4 -132,46 -35,54 -18,132 35,155 37,16 99,3 123,-26 z m -316,-462 c 146,-188 282,-427 367,-646 49,-127 107,-361 117,-468 l 6,-76 -383,1 -383,1 -7,63 c -8,71 -83,292 -134,394 -49,98 -143,234 -213,307 l -61,64 27,36 c 15,20 135,144 266,276 l 238,240 40,-45 c 22,-25 76,-91 120,-147 z m -4149,105 c 263,-232 512,-483 523,-530 4,-17 -14,-52 -70,-138 -90,-136 -174,-305 -205,-413 -15,-51 -26,-73 -31,-65 -12,18 -11,30 1,23 7,-4 9,3 5,22 -5,22 -4,25 5,13 9,-12 10,-10 6,13 -4,15 -2,36 4,47 7,14 7,20 0,20 -5,0 -10,-5 -10,-10 0,-16 -51,-61 -61,-54 -5,3 -9,13 -8,22 0,15 1,15 8,-1 6,-18 7,-18 23,0 8,10 21,28 27,41 11,20 9,22 -13,22 -19,0 -23,-4 -19,-20 4,-14 0,-20 -11,-20 -9,0 -16,5 -16,11 0,5 5,7 10,4 7,-4 9,5 5,27 -3,21 -2,28 4,19 5,-7 14,-10 21,-6 9,6 9,9 0,15 -8,5 -7,16 4,41 l 16,34 -5,-32 c -2,-18 -2,-33 1,-33 10,0 64,55 64,65 0,5 -4,4 -8,-2 -6,-9 -13,-3 -26,18 -15,25 -16,33 -6,42 7,7 10,7 7,2 -3,-6 -2,-17 2,-23 4,-8 8,5 9,29 1,29 9,47 24,60 12,11 16,19 8,19 -10,0 -10,4 1,21 8,11 17,19 20,17 9,-5 39,29 39,44 0,7 5,20 11,28 9,12 10,11 5,-5 -5,-16 -3,-15 13,5 12,15 16,29 11,34 -6,6 8,26 37,53 25,24 44,45 42,48 -18,17 -235,-264 -225,-292 3,-7 0,-12 -6,-10 -13,3 -88,-172 -91,-213 -1,-17 -5,-30 -9,-30 -4,0 -15,-26 -24,-57 -9,-32 -23,-75 -30,-96 -22,-59 -19,-72 19,-73 17,-1 24,1 15,3 -32,8 -19,22 27,29 50,7 49,6 36,51 -7,24 -6,33 5,37 26,10 36,-30 23,-89 l -12,-55 -131,-1 c -72,-1 -276,-4 -454,-8 -356,-7 -330,-12 -316,58 l 7,31 h 78 c 71,0 78,-2 85,-22 6,-21 7,-21 20,-3 7,10 11,22 8,26 -3,5 -48,9 -101,9 h -96 l 7,53 c 8,67 85,347 125,457 40,110 113,256 171,345 25,39 58,92 74,119 16,27 50,75 75,106 105,129 156,189 163,189 4,1 44,-32 90,-71 z m 1687,-449 c 16,-12 33,-29 36,-37 5,-14 4,-14 -12,0 -11,10 -30,15 -51,12 -18,-2 -31,0 -28,5 3,4 -6,6 -21,3 -17,-3 -24,-1 -19,6 3,6 2,13 -4,17 -6,4 -7,11 -4,17 10,15 69,2 103,-23 z m 770,21 c 39,-11 77,-43 97,-83 30,-56 13,-217 -22,-217 -13,0 -13,2 0,16 9,8 16,18 16,22 0,4 -12,-6 -27,-21 -20,-19 -24,-30 -16,-35 8,-5 2,-13 -18,-24 -17,-10 -28,-14 -25,-9 3,5 -5,9 -19,9 -15,0 -22,-5 -19,-12 3,-6 0,-4 -8,4 -7,9 -21,14 -31,12 -10,-2 -27,4 -38,14 -10,9 -19,13 -19,9 0,-4 -8,0 -19,9 -10,9 -25,16 -32,14 -25,-6 -50,130 -29,162 5,8 10,10 10,4 0,-7 17,6 39,27 21,22 49,39 62,40 44,2 74,-3 102,-18 16,-8 31,-12 34,-10 2,3 -5,8 -16,12 -12,3 -21,11 -21,16 0,5 -9,9 -20,9 -11,0 -20,4 -20,9 0,5 -8,7 -19,4 -10,-3 -22,1 -27,8 -5,9 -2,10 10,6 10,-4 15,-3 11,3 -8,13 3,30 18,30 7,0 27,-4 46,-10 z m -774,-84 c 28,-23 30,-28 31,-102 2,-78 -9,-122 -33,-137 -7,-4 -13,-15 -13,-22 0,-14 -10,-18 -27,-12 -5,1 -7,6 -5,11 2,5 -4,4 -12,-4 -19,-15 -21,-24 -4,-14 7,4 8,3 4,-4 -9,-15 -56,-16 -56,-2 0,6 8,10 18,10 12,0 8,6 -13,20 -16,11 -26,20 -22,20 13,0 -32,59 -55,71 -15,8 -19,8 -14,0 12,-18 -9,-12 -32,9 -14,13 -22,16 -22,8 0,-9 -3,-9 -10,2 -5,8 -9,38 -8,65 1,32 3,39 5,21 l 5,-29 18,28 c 10,16 25,30 32,31 8,1 31,13 52,28 52,35 119,36 161,2 z m 1744,-13 c -7,-19 -6,-29 2,-37 9,-8 10,-7 4,4 -6,12 -5,13 6,3 15,-15 33,-18 25,-5 -3,5 1,9 8,9 7,0 11,-7 9,-16 -2,-9 11,-28 32,-44 26,-20 35,-24 35,-13 0,9 6,13 14,10 9,-3 12,-12 9,-21 -4,-11 -2,-14 5,-9 7,4 14,-3 18,-19 3,-14 13,-25 21,-25 10,0 13,-6 9,-16 -3,-8 -2,-13 3,-10 5,3 12,-1 15,-10 3,-8 2,-12 -3,-9 -5,3 -13,0 -17,-7 -4,-7 -4,-10 1,-6 11,11 45,-10 45,-28 0,-8 4,-12 10,-9 6,3 7,-1 4,-9 -4,-11 0,-16 12,-16 16,0 17,-2 4,-10 -13,-9 -13,-11 0,-20 12,-7 12,-12 2,-22 -17,-17 -15,-33 3,-18 21,18 30,5 42,-57 9,-49 9,-51 -9,-42 -10,5 -18,6 -18,1 0,-17 41,-62 51,-57 9,6 12,-5 11,-42 -1,-13 3,-23 9,-23 5,0 9,-6 8,-12 -4,-30 2,-43 11,-23 5,13 7,0 5,-37 -1,-33 1,-55 7,-52 5,3 7,-6 4,-20 -4,-21 -1,-26 17,-26 20,0 20,0 1,-15 -10,-8 -33,-15 -51,-15 -29,0 -32,3 -38,43 -11,61 -80,258 -126,357 -48,101 -82,157 -166,268 -35,46 -63,86 -63,89 0,7 31,43 36,43 2,0 -1,-12 -7,-27 z m -1660,-63 c 0,-15 -6,-5 -14,25 -17,62 -17,69 0,30 8,-16 14,-41 14,-55 z m 1771,-13 c 0,-20 -1,-20 -25,3 -18,17 -22,26 -13,31 17,11 38,-9 38,-34 z m -3150,-1 c 0,-3 -4,-8 -10,-11 -5,-3 -10,-1 -10,4 0,6 5,11 10,11 6,0 10,-2 10,-4 z m -50,-60 c 0,-3 -4,-8 -10,-11 -5,-3 -10,-1 -10,4 0,6 5,11 10,11 6,0 10,-2 10,-4 z m -87,-230 c 4,-10 1,-13 -9,-9 -7,3 -14,9 -14,14 0,14 17,10 23,-5 z m -113,-256 c 0,-5 -5,-10 -11,-10 -5,0 -7,5 -4,10 3,6 8,10 11,10 2,0 4,-4 4,-10 z m 1755,-720 c 0,-703 0,-711 -20,-715 -11,-2 -37,-7 -57,-10 -58,-9 -192,-118 -233,-189 -7,-12 -11,239 -14,773 l -4,790 39,10 c 109,29 201,47 259,50 l 30,1 z m 327,690 c 65,-11 132,-26 150,-33 l 33,-13 v -797 c 0,-732 -1,-794 -16,-765 -23,45 -124,142 -177,171 -26,14 -64,28 -84,32 l -38,7 v 709 c 0,390 3,709 8,709 4,0 60,-9 124,-20 z m -849,-267 c 8,-158 7,-765 -2,-852 l -6,-64 -14,39 c -20,57 -96,161 -143,195 -23,16 -54,29 -70,29 h -28 l 1,301 1,302 43,41 c 38,35 189,135 206,136 3,0 9,-57 12,-127 z m 1312,76 c 40,-28 96,-75 124,-104 l 51,-54 v -285 -286 l -42,-1 c -24,0 -50,-3 -60,-7 -22,-9 -93,-100 -128,-163 l -27,-50 -5,438 c -4,410 -2,563 9,563 3,0 38,-23 78,-51 z M 3413,5650 c -1,-239 -2,-456 -2,-482 l -1,-48 h -430 -430 v 483 482 h 432 433 z m 4120,430 h 367 v -397 c 0,-219 -3,-435 -7,-480 l -6,-83 h -423 -424 l 2,48 1,47 6,-40 c 3,-22 12,-41 19,-42 6,-2 12,1 12,6 0,5 9,7 20,4 14,-4 20,0 20,10 0,10 -7,15 -19,12 -14,-2 -20,4 -24,23 -5,24 -4,25 8,8 13,-18 14,-17 12,3 -1,16 -8,21 -29,21 h -27 l 5,358 c 3,196 2,392 -3,436 l -9,79 65,-7 c 36,-3 231,-6 434,-6 z M 4185,5843 c 4,-10 10,-100 12,-200 l 6,-183 h -127 c -113,0 -126,2 -126,18 1,34 58,149 126,251 100,150 96,146 109,114 z m 2191,-85 c 43,-67 144,-266 144,-285 0,-4 -50,-8 -111,-8 h -111 l 7,150 c 6,148 12,215 20,215 2,0 25,-33 51,-72 z M 4340,5264 c 26,-5 85,-76 103,-124 14,-38 -12,-106 -61,-159 l -37,-39 -337,-6 -338,-6 v 169 169 l 323,1 c 177,0 333,-2 347,-5 z m 2440,-159 v -165 l -297,-2 c -375,-3 -350,-4 -380,24 -42,38 -83,109 -83,143 0,25 46,107 83,147 1,1 137,5 302,8 165,3 317,7 338,8 l 37,2 z M 4630,4698 c -1,-178 0,-456 3,-618 4,-189 3,-275 -3,-239 -15,92 -53,164 -124,234 -39,38 -76,66 -95,70 l -31,7 v 221 c 0,122 -3,252 -7,290 l -6,67 h 35 c 21,0 46,9 62,21 29,23 116,160 143,225 10,24 20,44 22,44 2,0 2,-145 1,-322 z m 1351,101 c 56,-69 57,-70 99,-67 l 35,3 3,-298 2,-297 h -53 c -52,0 -53,-1 -92,-51 -22,-29 -49,-63 -60,-77 -10,-14 -28,-48 -38,-76 -18,-51 -18,-50 -13,274 3,179 6,424 6,545 v 220 l 33,-61 c 18,-33 53,-85 78,-115 z m -2785,141 h 221 l 2,-440 c 1,-242 -1,-455 -4,-473 l -6,-32 -432,-3 -432,-3 7,323 c 4,178 5,391 2,475 l -6,152 43,4 c 24,3 121,3 214,1 94,-2 269,-4 391,-4 z m 4703,-365 c 1,-203 -1,-417 -5,-475 l -6,-105 -425,-3 -424,-2 3,52 3,52 45,4 c 67,5 72,10 10,11 l -55,1 -2,353 c -1,193 -5,382 -8,418 l -7,66 435,-1 434,-1 z m -2589,204 c 25,-5 68,-25 97,-44 100,-66 144,-217 95,-328 -65,-147 -225,-218 -357,-158 -101,45 -185,171 -185,277 0,94 101,229 188,252 50,13 107,14 162,1 z m 1229,-431 c 0,-103 -2,-188 -6,-190 -5,-2 -58,-2 -119,0 l -111,3 -7,110 c -3,60 -3,183 0,272 l 7,162 83,3 c 48,2 95,9 111,17 l 28,15 6,-103 c 4,-56 7,-186 8,-289 z m -2472,334 122,3 5,-29 c 3,-16 6,-134 6,-262 v -234 h -140 -140 l 3,273 c 1,191 5,270 12,260 8,-11 37,-14 132,-11 z M 5667,3633 c 1,-362 -1,-666 -4,-676 -5,-18 -14,-18 -153,-12 l -149,7 -4,-43 c -2,-24 -4,197 -5,491 l -2,536 44,12 c 54,14 130,87 166,159 13,26 38,69 56,96 18,26 36,56 39,67 4,11 7,20 9,20 1,0 2,-296 3,-657 z m -807,580 c 12,-27 23,-56 25,-66 11,-51 139,-170 219,-203 43,-18 46,-21 47,-59 7,-373 4,-957 -4,-962 -5,-3 -7,-1 -4,4 11,17 -30,23 -170,23 h -133 l -2,48 c -2,66 -3,1262 -1,1262 1,0 12,-21 23,-47 z m -821,-247 303,-4 39,-38 c 21,-21 46,-57 55,-80 20,-52 10,-91 -41,-157 l -34,-45 -123,-7 c -68,-3 -223,-7 -346,-8 l -222,-2 v 178 178 l 33,-6 c 17,-3 169,-7 336,-9 z m 2741,-168 v -168 h -328 -329 l -46,63 c -77,101 -75,129 11,219 l 56,59 318,-2 318,-3 z M 3420,3423 c 0,-219 -3,-442 -7,-497 l -6,-98 -41,6 c -22,4 -46,12 -53,18 -7,5 -20,8 -28,4 -9,-3 -14,-2 -11,3 3,4 -107,8 -243,9 -137,0 -258,3 -268,6 -11,3 -40,2 -65,-2 -25,-5 -59,-7 -75,-5 -26,4 -29,9 -28,34 1,22 -3,29 -16,29 -13,0 -19,-10 -22,-32 -2,-18 -3,180 -3,439 l 1,473 425,3 c 234,1 428,3 433,5 4,1 7,-177 7,-395 z m 4185,387 h 292 l 1,-491 1,-490 -92,2 c -105,2 -136,9 -97,21 18,5 14,6 -15,3 -22,-3 -69,-6 -105,-7 l -65,-2 80,-6 c 68,-5 58,-6 -65,-7 -85,-1 -135,2 -120,7 18,6 7,8 -42,9 -43,1 -68,5 -68,12 0,7 -10,9 -24,5 -14,-3 -28,-2 -31,4 -3,5 -37,10 -76,10 -39,0 -69,4 -69,10 0,6 12,10 28,11 l 27,1 -25,7 c -14,4 -27,3 -28,-1 -2,-5 -10,-4 -18,3 -11,9 -14,8 -14,-2 0,-11 -2,-11 -10,1 -7,11 -10,2 -10,-32 0,-27 -3,-48 -7,-48 -5,0 -8,223 -8,496 v 497 l 134,-7 c 74,-3 266,-6 426,-6 z m -2970,-527 -7,-343 h -129 -129 l 2,238 c 3,223 4,237 21,234 22,-4 64,22 92,56 44,55 112,174 131,228 l 19,57 3,-64 c 2,-35 1,-218 -3,-406 z m 1303,248 c 47,-59 109,-101 148,-101 h 34 v -249 c 0,-137 -3,-263 -6,-280 l -7,-32 -101,5 c -55,3 -111,6 -122,6 -21,0 -22,6 -29,181 -4,99 -4,279 0,400 l 8,220 23,-57 c 13,-31 36,-73 52,-93 z m 592,-363 v -253 l -105,3 c -104,3 -105,3 -106,-20 -5,-80 -17,110 -18,273 l -1,195 h 100 c 55,0 102,3 105,6 3,3 7,15 8,27 1,11 5,21 9,21 4,0 8,-114 8,-252 z m -2330,-17 v -239 l -146,1 -146,2 6,65 c 3,36 6,135 6,221 v 156 l 126,6 c 71,3 131,10 137,16 6,6 12,11 14,11 2,0 3,-108 3,-239 z M 2725,2846 c 11,-2 -24,-4 -77,-5 -53,0 -99,2 -101,7 -5,7 133,5 178,-2 z"
       id="path1"
       style="fill:#ffcc00" />
    <path
       d="m 5263,7793 c 37,-2 97,-2 135,0 37,2 6,3 -68,3 -74,0 -105,-1 -67,-3 z"
       id="path2" />
    <path
       d="m 4825,7776 c -48,-9 -56,-13 -40,-20 42,-18 104,-23 109,-9 3,8 23,13 53,14 38,1 43,3 23,9 -24,7 -23,7 10,12 22,3 10,5 -30,5 -36,1 -92,-4 -125,-11 z"
       id="path3" />
    <path
       d="m 5488,7783 c 6,-2 18,-2 25,0 6,3 1,5 -13,5 -14,0 -19,-2 -12,-5 z"
       id="path4" />
    <path
       d="m 5368,7773 c 7,-3 16,-2 19,1 4,3 -2,6 -13,5 -11,0 -14,-3 -6,-6 z"
       id="path5" />
    <path
       d="m 4332,7586 c -33,-19 -35,-23 -12,-29 11,-3 18,-1 15,3 -3,5 5,16 17,24 26,19 13,20 -20,2 z"
       id="path6" />
    <path
       d="m 4233,7524 c -59,-35 -54,-41 5,-8 56,33 58,34 46,34 -5,0 -28,-12 -51,-26 z"
       id="path7" />
    <path
       d="m 4087,7428 c -64,-49 -77,-71 -17,-32 22,15 40,30 40,34 0,4 15,15 33,24 17,8 25,16 16,16 -8,0 -41,-19 -72,-42 z"
       id="path8" />
    <path
       d="m 3800,7336 c 0,-2 7,-7 16,-10 8,-3 12,-2 9,4 -6,10 -25,14 -25,6 z"
       id="path9" />
    <path
       d="m 3866,7267 c 3,-10 9,-15 12,-12 3,3 0,11 -7,18 -10,9 -11,8 -5,-6 z"
       id="path10" />
    <path
       d="m 5960,7652 c 0,-15 5,-18 23,-15 15,3 28,-2 37,-14 8,-10 11,-15 6,-11 -5,4 -17,3 -27,-3 -13,-6 -19,-6 -19,1 0,5 8,10 17,10 9,0 14,3 10,6 -10,10 -44,-6 -44,-20 0,-14 16,-14 75,-1 15,4 22,1 22,-10 0,-9 7,-18 15,-21 8,-4 12,-11 8,-17 -4,-6 -1,-7 7,-2 10,6 12,4 7,-8 -5,-14 -2,-14 21,3 27,20 62,19 62,-2 0,-5 -4,-7 -8,-4 -5,3 -9,-1 -9,-9 0,-10 5,-11 16,-6 19,10 61,-4 61,-19 0,-6 5,-8 10,-5 6,3 10,-1 10,-10 0,-9 -4,-14 -8,-11 -5,3 -9,-2 -9,-11 0,-12 5,-11 19,7 19,23 19,24 -9,46 -30,25 -234,130 -270,139 -18,5 -23,2 -23,-13 z m 153,-85 c -3,-4 -6,-7 -7,-5 -1,2 -8,12 -16,22 -14,18 -14,18 7,6 12,-8 19,-18 16,-23 z"
       id="path11" />
    <path
       d="m 6132,7544 c -7,-8 -8,-14 -3,-14 10,0 25,19 20,25 -2,1 -10,-3 -17,-11 z"
       id="path12" />
    <path
       d="m 6117,7513 c -11,-10 -8,-45 3,-38 6,3 10,1 10,-5 0,-6 5,-8 12,-4 8,5 7,10 -4,18 -8,6 -13,17 -11,24 5,13 0,16 -10,5 z"
       id="path13" />
    <path
       d="m 6277,7480 c -3,-11 2,-25 11,-32 12,-10 14,-10 8,0 -5,8 0,12 18,12 24,0 40,-14 41,-35 0,-5 8,-9 18,-9 9,1 17,-2 17,-6 0,-4 16,-17 35,-29 19,-11 35,-19 35,-17 0,4 -167,136 -173,136 -3,0 -7,-9 -10,-20 z"
       id="path14" />
    <path
       d="m 6186,7429 c 4,-8 30,-6 38,2 3,3 -5,5 -19,5 -13,0 -22,-3 -19,-7 z"
       id="path15" />
    <path
       d="m 6238,7413 c 7,-3 16,-2 19,1 4,3 -2,6 -13,5 -11,0 -14,-3 -6,-6 z"
       id="path16" />
    <path
       d="m 7199,7375 -16,-34 28,22 c 27,21 32,38 13,44 -5,1 -16,-13 -25,-32 z"
       id="path17" />
    <path
       d="m 7168,6343 c 6,-2 18,-2 25,0 6,3 1,5 -13,5 -14,0 -19,-2 -12,-5 z"
       id="path18" />
    <path
       d="m 3531,6704 c 0,-11 3,-14 6,-6 3,7 2,16 -1,19 -3,4 -6,-2 -5,-13 z"
       id="path19" />
    <path
       d="m 3572,6680 c 0,-14 2,-19 5,-12 2,6 2,18 0,25 -3,6 -5,1 -5,-13 z"
       id="path20" />
    <path
       d="m 3452,6370 c 0,-14 2,-19 5,-12 2,6 2,18 0,25 -3,6 -5,1 -5,-13 z"
       id="path21" />
    <path
       d="m 3410,6306 c 0,-2 9,-6 20,-9 11,-3 18,-1 14,4 -5,9 -34,13 -34,5 z"
       id="path22" />
    <path
       d="m 5775,6938 c 0,-50 8,-69 23,-52 4,4 1,4 -7,-1 -14,-8 -14,-4 5,55 3,8 -1,23 -8,33 -11,15 -13,10 -13,-35 z"
       id="path23" />
    <path
       d="m 5557,6851 c 3,-11 11,-25 17,-31 20,-16 15,17 -5,36 -16,15 -17,14 -12,-5 z"
       id="path24" />
    <path
       d="m 5736,6855 c -16,-12 -17,-15 -4,-15 9,0 18,7 22,15 7,18 6,18 -18,0 z"
       id="path25" />
    <path
       d="m 5740,6800 c 0,-5 5,-10 11,-10 5,0 7,5 4,10 -3,6 -8,10 -11,10 -2,0 -4,-4 -4,-10 z"
       id="path26" />
    <path
       d="m 6910,6741 c 0,-5 7,-11 14,-14 10,-4 13,-1 9,9 -6,15 -23,19 -23,5 z"
       id="path27" />
    <path
       d="m 6971,6645 c 0,-12 -5,-26 -11,-33 -5,-7 -3,-6 6,2 9,7 14,22 11,32 -4,17 -5,17 -6,-1 z"
       id="path28" />
    <path
       d="m 6943,6635 c 0,-8 4,-12 9,-9 5,3 6,10 3,15 -9,13 -12,11 -12,-6 z"
       id="path29" />
    <path
       d="m 6986,6611 c -4,-7 -5,-15 -2,-18 9,-9 19,4 14,18 -4,11 -6,11 -12,0 z"
       id="path30" />
    <path
       d="m 7010,6484 c 0,-8 5,-12 10,-9 6,3 10,10 10,16 0,5 -4,9 -10,9 -5,0 -10,-7 -10,-16 z"
       id="path31" />
    <path
       d="m 6996,6443 c -6,-14 -5,-15 5,-6 7,7 10,15 7,18 -3,3 -9,-2 -12,-12 z"
       id="path32" />
    <path
       d="m 7035,6390 c 3,-5 8,-10 11,-10 2,0 4,5 4,10 0,6 -5,10 -11,10 -5,0 -7,-4 -4,-10 z"
       id="path33" />
    <path
       d="m 6776,6967 c 3,-10 9,-15 12,-12 3,3 0,11 -7,18 -10,9 -11,8 -5,-6 z"
       id="path34" />
    <path
       d="m 2935,5668 c -73,-40 -87,-102 -36,-157 24,-26 36,-31 75,-31 121,0 161,158 49,189 -47,13 -63,13 -88,-1 z"
       id="path35" />
    <path
       d="m 2645,5211 c 50,-3 122,-3 160,0 46,4 15,6 -90,6 -128,0 -142,-1 -70,-6 z"
       id="path36" />
    <path
       d="m 2968,5213 c 6,-2 18,-2 25,0 6,3 1,5 -13,5 -14,0 -19,-2 -12,-5 z"
       id="path37" />
    <path
       d="m 3103,5213 c 9,-2 23,-2 30,0 6,3 -1,5 -18,5 -16,0 -22,-2 -12,-5 z"
       id="path38" />
    <path
       d="m 7404,5646 c -25,-24 -34,-43 -34,-66 0,-49 55,-100 108,-100 47,0 88,29 109,77 18,44 2,78 -47,104 -55,30 -96,25 -136,-15 z"
       id="path39" />
    <path
       d="m 7116,5212 c -2,-4 12,-6 32,-4 56,5 62,10 15,11 -23,1 -44,-3 -47,-7 z"
       id="path40" />
    <path
       d="m 3885,5178 c -55,-30 -59,-76 -11,-124 42,-42 65,-43 111,-3 44,39 44,62 1,105 -35,35 -65,42 -101,22 z"
       id="path41" />
    <path
       d="m 4200,5172 c -66,-36 -61,-106 10,-142 47,-24 71,-17 95,30 21,40 19,65 -7,94 -32,34 -58,39 -98,18 z"
       id="path42" />
    <path
       d="m 6490,5183 c -32,-12 -60,-47 -60,-76 0,-34 48,-87 80,-87 51,0 98,58 81,102 -16,42 -67,73 -101,61 z"
       id="path43" />
    <path
       d="m 6166,5164 c -9,-9 -16,-32 -16,-54 0,-40 26,-71 72,-86 26,-8 88,50 88,82 0,54 -106,97 -144,58 z"
       id="path44" />
    <path
       d="m 2907,4539 c -31,-25 -37,-37 -37,-68 0,-43 20,-75 60,-96 40,-21 84,-9 120,32 41,46 40,85 -4,129 -45,45 -87,46 -139,3 z"
       id="path45" />
    <path
       d="m 7406,4540 c -44,-39 -53,-68 -31,-109 21,-41 72,-66 118,-57 37,7 97,64 97,92 0,41 -52,88 -112,99 -31,6 -40,2 -72,-25 z"
       id="path46" />
    <path
       d="m 5200,4620 c -56,-29 -73,-54 -78,-115 -5,-65 13,-100 63,-121 44,-18 79,-18 116,1 85,45 92,188 11,228 -48,25 -75,26 -112,7 z"
       id="path47" />
    <path
       d="m 3882,3860 c -40,-24 -60,-64 -46,-88 15,-24 73,-62 95,-62 9,0 31,12 48,26 50,42 38,104 -24,130 -42,17 -34,18 -73,-6 z"
       id="path48" />
    <path
       d="m 4175,3845 c -14,-13 -25,-35 -25,-49 0,-31 61,-86 96,-86 35,0 74,42 74,80 0,71 -94,107 -145,55 z"
       id="path49" />
    <path
       d="m 6456,3849 c -34,-40 -33,-74 3,-110 38,-37 76,-38 113,-2 37,36 37,75 -1,114 -40,40 -81,39 -115,-2 z"
       id="path50" />
    <path
       d="m 6177,3852 c -27,-30 -22,-87 9,-111 53,-42 124,-10 124,55 0,62 -93,101 -133,56 z"
       id="path51" />
    <path
       d="m 2908,3393 c -82,-53 -39,-183 61,-183 51,0 105,54 105,105 0,73 -100,120 -166,78 z"
       id="path52" />
    <path
       d="m 7394,3376 c -38,-38 -41,-53 -18,-99 24,-48 53,-67 102,-67 35,0 49,6 72,29 55,54 50,113 -12,151 -52,32 -103,27 -144,-14 z"
       id="path53" />
  </g>
</svg>
